<?xml version="1.0" encoding="iso-8859-1"?>
<!-- Generator: Adobe Illustrator 18.0.0, SVG Export Plug-In . SVG Version: 6.00 Build 0)  -->
<!DOCTYPE svg PUBLIC "-//W3C//DTD SVG 1.1//EN" "http://www.w3.org/Graphics/SVG/1.1/DTD/svg11.dtd">
<svg version="1.1" id="Capa_1" xmlns="http://www.w3.org/2000/svg" xmlns:xlink="http://www.w3.org/1999/xlink" x="0px" y="0px"
	 viewBox="0 0 496.962 496.962" style="enable-background:new 0 0 496.962 496.962;" xml:space="preserve">
<path d="M431.002,271.543c-9.275-19.132-47.152-83.663-135.106-81.338c3.206-11.391,5.256-20.837,5.256-26.496
	c0-2.057-0.321-4.019-0.591-5.995l5.468-2.194l0.592-0.175c-0.007-0.018-0.014-0.036-0.021-0.054l56.942-22.857
	c3.384-1.359,5.377-4.884,4.807-8.486c-8.733-55.098,14.16-88.133,32.093-104.936c0.959-0.898,1.087-2.376,0.299-3.428
	c-0.787-1.052-2.24-1.344-3.373-0.678c-57.443,33.771-45.833,103.401-45.833,103.401l-56.345,21.372
	c-3.048-5.946-7.179-11.191-12.168-15.566c18.683-7.007,31.201-19.368,31.201-33.567c0-11.197-7.787-26.987-20.18-39.816
	c1.583-11.509,2.758-40.361-22.836-50.499c-1.325-0.525-2.839-0.134-3.741,0.97c-0.903,1.104-0.987,2.665-0.21,3.859
	c3.947,6.059,6.923,15.576,1.009,28.178c-7.145-2.879-13.498-4.319-19.783-4.364c-6.287,0.045-12.639,1.484-19.784,4.364
	c-5.914-12.602-2.939-22.119,1.009-28.178c0.777-1.194,0.693-2.755-0.21-3.859c-0.902-1.104-2.416-1.495-3.741-0.97
	c-25.594,10.138-24.419,38.99-22.836,50.499c-12.393,12.829-20.18,28.619-20.18,39.816c0,14.2,12.519,26.56,31.201,33.567
	c-4.989,4.375-9.12,9.62-12.168,15.566l-56.345-21.372c0,0,11.61-69.63-45.833-103.401c-1.133-0.666-2.586-0.374-3.373,0.678
	c-0.788,1.052-0.66,2.529,0.299,3.428c17.933,16.803,40.826,49.838,32.093,104.936c-0.57,3.602,1.423,7.127,4.807,8.486
	l56.942,22.857c-0.007,0.018-0.014,0.036-0.021,0.054l0.592,0.175l5.468,2.194c-0.27,1.976-0.591,3.938-0.591,5.995
	c0,5.658,2.05,15.105,5.256,26.496c-87.954-2.325-125.831,62.205-135.106,81.338c-1.444,2.979-0.535,6.573,2.159,8.497
	c1.545,1.103,3.487,1.49,5.336,1.063c1.849-0.427,3.423-1.628,4.328-3.295c41.369-76.169,115.208-73.761,129.708-72.497
	c5.877,17.128,13.27,43.669,13.27,43.669c-36.689,6.249-63.35,26.268-64.08,66.279l-58.837,18.109
	c-2.939,0.911-5.259,3.42-5.779,6.648L78.897,423.41l-0.095,0.6c-0.166,1.097-0.034,2.242,0.42,3.328l29.209,68.287
	c0.42,0.973,1.476,1.536,2.549,1.272c1.17-0.289,1.896-1.477,1.604-2.651l-17.012-69.811l12.112-76.698l51.107-15.722
	c10.487,41.342,57.053,102.549,78.775,129.508c2.662,3.311,6.648,5.251,10.882,5.346v0.005c0.011,0,0.022-0.002,0.034-0.002
	c0.011,0,0.022,0.002,0.033,0.002v-0.005c4.233-0.095,8.221-2.035,10.882-5.346c21.723-26.959,68.288-88.166,78.775-129.508
	l51.106,15.722l12.112,76.698l-17.012,69.811c-0.293,1.174,0.434,2.363,1.604,2.651c1.072,0.263,2.129-0.3,2.549-1.272
	l29.209-68.287c0.454-1.086,0.586-2.231,0.42-3.328l-0.095-0.6l-13.168-83.394c-0.521-3.228-2.841-5.738-5.779-6.648l-58.837-18.109
	c-0.73-40.011-27.391-60.03-64.08-66.279c0,0,7.393-26.541,13.27-43.669c14.5-1.264,88.339-3.672,129.708,72.497
	c0.905,1.668,2.48,2.869,4.328,3.295c1.849,0.427,3.791,0.04,5.336-1.063C431.537,278.116,432.446,274.523,431.002,271.543z"/>
<g>
</g>
<g>
</g>
<g>
</g>
<g>
</g>
<g>
</g>
<g>
</g>
<g>
</g>
<g>
</g>
<g>
</g>
<g>
</g>
<g>
</g>
<g>
</g>
<g>
</g>
<g>
</g>
<g>
</g>
</svg>
